<svg xmlns="http://www.w3.org/2000/svg" xmlns:xlink="http://www.w3.org/1999/xlink" width="500" zoomAndPan="magnify" viewBox="0 0 375 374.999991" height="500" preserveAspectRatio="xMidYMid meet" version="1.0"><defs><g/><clipPath id="0e71ec5a21"><path d="M 115.019531 149.140625 L 274.019531 149.140625 L 274.019531 215.140625 L 115.019531 215.140625 Z M 115.019531 149.140625 " clip-rule="nonzero"/></clipPath></defs><g clip-path="url(#0e71ec5a21)"><path fill="#334018" d="M 274.015625 149.140625 L 115.023438 149.140625 L 131.480469 182.140625 L 115.023438 215.140625 L 274.015625 215.140625 L 257.558594 182.140625 L 274.015625 149.140625 " fill-opacity="1" fill-rule="nonzero"/></g><g fill="#ffffff" fill-opacity="1"><g transform="translate(228.162352, 188.388036)"><g><path d="M 6.6875 -19.234375 L 10.546875 -19.234375 L 3.015625 2.28125 L -0.84375 2.28125 Z M 6.6875 -19.234375 "/></g></g></g><g fill="#ffffff" fill-opacity="1"><g transform="translate(237.636011, 188.388036)"><g><path d="M 12.59375 -9.75 L 12.59375 -6.234375 L 1.328125 -2.078125 L 1.328125 -5.40625 L 8.609375 -8 L 1.328125 -10.578125 L 1.328125 -13.90625 Z M 12.59375 -9.75 "/></g></g></g><g fill="#ffffff" fill-opacity="1"><g transform="translate(133.851023, 188.388036)"><g><path d="M 12.59375 -10.578125 L 5.296875 -8 L 12.59375 -5.40625 L 12.59375 -2.078125 L 1.328125 -6.234375 L 1.328125 -9.75 L 12.59375 -13.90625 Z M 12.59375 -10.578125 "/></g></g></g><g fill="#cad959" fill-opacity="1"><g transform="translate(153.22326, 189.186271)"><g><path d="M 16.75 -11.34375 L 22.171875 -11.34375 L 22.171875 -2.328125 C 20.929688 -1.441406 19.503906 -0.757812 17.890625 -0.28125 C 16.273438 0.195312 14.660156 0.4375 13.046875 0.4375 C 10.765625 0.4375 8.710938 -0.0390625 6.890625 -1 C 5.066406 -1.96875 3.640625 -3.3125 2.609375 -5.03125 C 1.578125 -6.75 1.0625 -8.695312 1.0625 -10.875 C 1.0625 -13.050781 1.578125 -15 2.609375 -16.71875 C 3.640625 -18.4375 5.078125 -19.773438 6.921875 -20.734375 C 8.765625 -21.691406 10.847656 -22.171875 13.171875 -22.171875 C 15.203125 -22.171875 17.023438 -21.828125 18.640625 -21.140625 C 20.253906 -20.460938 21.597656 -19.484375 22.671875 -18.203125 L 18.765625 -14.65625 C 17.296875 -16.269531 15.535156 -17.078125 13.484375 -17.078125 C 11.617188 -17.078125 10.113281 -16.515625 8.96875 -15.390625 C 7.832031 -14.265625 7.265625 -12.757812 7.265625 -10.875 C 7.265625 -9.664062 7.523438 -8.59375 8.046875 -7.65625 C 8.566406 -6.71875 9.289062 -5.984375 10.21875 -5.453125 C 11.15625 -4.921875 12.222656 -4.65625 13.421875 -4.65625 C 14.597656 -4.65625 15.707031 -4.894531 16.75 -5.375 Z M 16.75 -11.34375 "/></g></g></g><g fill="#cad959" fill-opacity="1"><g transform="translate(177.13531, 189.186271)"><g><path d="M 12.109375 -21.75 C 14.078125 -21.75 15.785156 -21.421875 17.234375 -20.765625 C 18.691406 -20.109375 19.8125 -19.175781 20.59375 -17.96875 C 21.382812 -16.757812 21.78125 -15.335938 21.78125 -13.703125 C 21.78125 -12.066406 21.382812 -10.644531 20.59375 -9.4375 C 19.8125 -8.238281 18.691406 -7.3125 17.234375 -6.65625 C 15.785156 -6.007812 14.078125 -5.6875 12.109375 -5.6875 L 8.328125 -5.6875 L 8.328125 0 L 2.171875 0 L 2.171875 -21.75 Z M 11.734375 -10.53125 C 13.003906 -10.53125 13.957031 -10.800781 14.59375 -11.34375 C 15.238281 -11.894531 15.5625 -12.679688 15.5625 -13.703125 C 15.5625 -14.710938 15.238281 -15.492188 14.59375 -16.046875 C 13.957031 -16.609375 13.003906 -16.890625 11.734375 -16.890625 L 8.328125 -16.890625 L 8.328125 -10.53125 Z M 11.734375 -10.53125 "/></g></g></g><g fill="#cad959" fill-opacity="1"><g transform="translate(200.022565, 189.186271)"><g><path d="M 18.890625 -11.34375 C 20.128906 -10.90625 21.097656 -10.222656 21.796875 -9.296875 C 22.503906 -8.378906 22.859375 -7.269531 22.859375 -5.96875 C 22.859375 -4.0625 22.09375 -2.585938 20.5625 -1.546875 C 19.03125 -0.515625 16.816406 0 13.921875 0 L 2.171875 0 L 2.171875 -21.75 L 13.296875 -21.75 C 16.066406 -21.75 18.175781 -21.234375 19.625 -20.203125 C 21.082031 -19.179688 21.8125 -17.800781 21.8125 -16.0625 C 21.8125 -15.019531 21.554688 -14.085938 21.046875 -13.265625 C 20.535156 -12.453125 19.816406 -11.8125 18.890625 -11.34375 Z M 8.265625 -17.296875 L 8.265625 -13.109375 L 12.484375 -13.109375 C 14.554688 -13.109375 15.59375 -13.8125 15.59375 -15.21875 C 15.59375 -16.601562 14.554688 -17.296875 12.484375 -17.296875 Z M 13.421875 -4.4375 C 15.578125 -4.4375 16.65625 -5.171875 16.65625 -6.640625 C 16.65625 -8.117188 15.578125 -8.859375 13.421875 -8.859375 L 8.265625 -8.859375 L 8.265625 -4.4375 Z M 13.421875 -4.4375 "/></g></g></g><g fill="#ffffff" fill-opacity="1"><g transform="translate(187.490172, 212.309682)"><g/></g></g></svg>