<svg xmlns="http://www.w3.org/2000/svg" xmlns:xlink="http://www.w3.org/1999/xlink" width="400" zoomAndPan="magnify" viewBox="0 0 300 149.999998" height="200" preserveAspectRatio="xMidYMid meet" version="1.0"><defs><g/></defs><g fill="#ffffff" fill-opacity="1"><g transform="translate(8.351644, 81.89179)"><g><path d="M 5.53125 0 L 0.6875 -45.25 L 9.53125 -45.25 L 12.0625 -16.703125 L 14.59375 -45.25 L 23.015625 -45.25 L 25.4375 -16.703125 L 27.859375 -45.25 L 36.8125 -45.25 L 31.859375 0 L 21.015625 0 L 18.75 -21.8125 L 16.59375 0 Z M 5.53125 0 "/></g></g></g><g fill="#ffffff" fill-opacity="1"><g transform="translate(45.848483, 81.89179)"><g><path d="M 2 0 L 2 -45.25 L 20.125 -45.25 L 20.125 -36.5 L 11.21875 -36.5 L 11.21875 -27.703125 L 19.75 -27.703125 L 19.75 -19.171875 L 11.21875 -19.171875 L 11.21875 -8.796875 L 20.703125 -8.796875 L 20.703125 0 Z M 2 0 "/></g></g></g><g fill="#ffffff" fill-opacity="1"><g transform="translate(67.546091, 81.89179)"><g/></g></g><g fill="#ffffff" fill-opacity="1"><g transform="translate(79.869489, 81.89179)"><g><path d="M 0.796875 0 L 5.15625 -45.25 L 20.484375 -45.25 L 24.8125 0 L 16.21875 0 L 15.59375 -7.328125 L 10.109375 -7.328125 L 9.59375 0 Z M 10.796875 -14.53125 L 14.90625 -14.53125 L 12.90625 -37.5625 L 12.484375 -37.5625 Z M 10.796875 -14.53125 "/></g></g></g><g fill="#ffffff" fill-opacity="1"><g transform="translate(105.411579, 81.89179)"><g><path d="M 2 -45.25 L 15.90625 -45.25 C 18.113281 -45.25 19.820312 -44.75 21.03125 -43.75 C 22.25 -42.75 23.066406 -41.34375 23.484375 -39.53125 C 23.910156 -37.71875 24.125 -35.410156 24.125 -32.609375 C 24.125 -30.046875 23.789062 -28.039062 23.125 -26.59375 C 22.457031 -25.15625 21.296875 -24.15625 19.640625 -23.59375 C 21.015625 -23.3125 22.007812 -22.625 22.625 -21.53125 C 23.238281 -20.445312 23.546875 -18.976562 23.546875 -17.125 L 23.4375 0 L 14.59375 0 L 14.59375 -17.703125 C 14.59375 -18.960938 14.34375 -19.765625 13.84375 -20.109375 C 13.351562 -20.460938 12.460938 -20.640625 11.171875 -20.640625 L 11.171875 0 L 2 0 Z M 13.375 -28.5 C 14.644531 -28.5 15.28125 -29.867188 15.28125 -32.609375 C 15.28125 -33.796875 15.222656 -34.6875 15.109375 -35.28125 C 15.003906 -35.882812 14.8125 -36.300781 14.53125 -36.53125 C 14.25 -36.757812 13.847656 -36.875 13.328125 -36.875 L 11.21875 -36.875 L 11.21875 -28.5 Z M 13.375 -28.5 "/></g></g></g><g fill="#ffffff" fill-opacity="1"><g transform="translate(130.532355, 81.89179)"><g><path d="M 2 0 L 2 -45.25 L 20.125 -45.25 L 20.125 -36.5 L 11.21875 -36.5 L 11.21875 -27.703125 L 19.75 -27.703125 L 19.75 -19.171875 L 11.21875 -19.171875 L 11.21875 -8.796875 L 20.703125 -8.796875 L 20.703125 0 Z M 2 0 "/></g></g></g><g fill="#ffffff" fill-opacity="1"><g transform="translate(152.229962, 81.89179)"><g/></g></g><g fill="#ffffff" fill-opacity="1"><g transform="translate(164.55336, 81.89179)"><g><path d="M 2 0 L 2 -45.25 L 11.015625 -45.25 L 11.015625 -29.078125 L 15.28125 -29.078125 L 15.28125 -45.25 L 24.28125 -45.25 L 24.28125 0 L 15.28125 0 L 15.28125 -20.546875 L 11.015625 -20.546875 L 11.015625 0 Z M 2 0 "/></g></g></g><g fill="#ffffff" fill-opacity="1"><g transform="translate(190.832747, 81.89179)"><g><path d="M 1.578125 0 L 1.578125 -45.25 L 10.328125 -45.25 L 10.328125 0 Z M 1.578125 0 "/></g></g></g><g fill="#ffffff" fill-opacity="1"><g transform="translate(202.787485, 81.89179)"><g><path d="M 2 -45.25 L 15.90625 -45.25 C 18.113281 -45.25 19.820312 -44.75 21.03125 -43.75 C 22.25 -42.75 23.066406 -41.34375 23.484375 -39.53125 C 23.910156 -37.71875 24.125 -35.410156 24.125 -32.609375 C 24.125 -30.046875 23.789062 -28.039062 23.125 -26.59375 C 22.457031 -25.15625 21.296875 -24.15625 19.640625 -23.59375 C 21.015625 -23.3125 22.007812 -22.625 22.625 -21.53125 C 23.238281 -20.445312 23.546875 -18.976562 23.546875 -17.125 L 23.4375 0 L 14.59375 0 L 14.59375 -17.703125 C 14.59375 -18.960938 14.34375 -19.765625 13.84375 -20.109375 C 13.351562 -20.460938 12.460938 -20.640625 11.171875 -20.640625 L 11.171875 0 L 2 0 Z M 13.375 -28.5 C 14.644531 -28.5 15.28125 -29.867188 15.28125 -32.609375 C 15.28125 -33.796875 15.222656 -34.6875 15.109375 -35.28125 C 15.003906 -35.882812 14.8125 -36.300781 14.53125 -36.53125 C 14.25 -36.757812 13.847656 -36.875 13.328125 -36.875 L 11.21875 -36.875 L 11.21875 -28.5 Z M 13.375 -28.5 "/></g></g></g><g fill="#ffffff" fill-opacity="1"><g transform="translate(227.908273, 81.89179)"><g><path d="M 1.578125 0 L 1.578125 -45.25 L 10.328125 -45.25 L 10.328125 0 Z M 1.578125 0 "/></g></g></g><g fill="#ffffff" fill-opacity="1"><g transform="translate(239.863022, 81.89179)"><g><path d="M 2 0 L 2 -45.25 L 11.328125 -45.25 L 15.484375 -23.59375 L 15.484375 -45.25 L 24.234375 -45.25 L 24.234375 0 L 15.375 0 L 10.84375 -22.65625 L 10.84375 0 Z M 2 0 "/></g></g></g><g fill="#ffffff" fill-opacity="1"><g transform="translate(266.089743, 81.89179)"><g><path d="M 11.328125 0.421875 C 8.054688 0.421875 5.625 -0.726562 4.03125 -3.03125 C 2.4375 -5.332031 1.640625 -8.816406 1.640625 -13.484375 L 1.640625 -32.96875 C 1.640625 -37.144531 2.566406 -40.304688 4.421875 -42.453125 C 6.285156 -44.597656 9.0625 -45.671875 12.75 -45.671875 C 15.726562 -45.671875 18.039062 -45.070312 19.6875 -43.875 C 21.34375 -42.675781 22.488281 -40.9375 23.125 -38.65625 C 23.757812 -36.375 24.078125 -33.441406 24.078125 -29.859375 L 15.21875 -29.859375 L 15.21875 -33.921875 C 15.21875 -35.003906 15.066406 -35.84375 14.765625 -36.4375 C 14.472656 -37.039062 13.941406 -37.34375 13.171875 -37.34375 C 11.453125 -37.34375 10.59375 -36.21875 10.59375 -33.96875 L 10.59375 -12.0625 C 10.59375 -10.6875 10.765625 -9.648438 11.109375 -8.953125 C 11.460938 -8.253906 12.078125 -7.90625 12.953125 -7.90625 C 13.835938 -7.90625 14.453125 -8.253906 14.796875 -8.953125 C 15.148438 -9.648438 15.328125 -10.6875 15.328125 -12.0625 L 15.328125 -18.546875 L 12.90625 -18.546875 L 12.90625 -26.34375 L 23.96875 -26.34375 L 23.96875 0 L 20.328125 0 L 18.796875 -3.796875 C 17.179688 -0.984375 14.691406 0.421875 11.328125 0.421875 Z M 11.328125 0.421875 "/></g></g></g><path fill="#035aa6" d="M 63.460938 98.003906 L 236.511719 98.003906 C 238.234375 98.003906 239.886719 98.6875 241.101562 99.90625 C 242.320312 101.125 243.003906 102.777344 243.003906 104.5 L 243.003906 117.492188 C 243.003906 119.214844 242.320312 120.867188 241.101562 122.082031 C 239.886719 123.300781 238.234375 123.984375 236.511719 123.984375 L 63.460938 123.984375 C 59.871094 123.984375 56.964844 121.078125 56.964844 117.492188 L 56.964844 104.5 C 56.964844 100.914062 59.871094 98.003906 63.460938 98.003906 " fill-opacity="1" fill-rule="nonzero"/><g fill="#ffffff" fill-opacity="1"><g transform="translate(63.459407, 116.995258)"><g><path d="M 3.328125 -9.9375 L 3.328125 -5.984375 L 9.015625 -5.984375 L 9.015625 -4.578125 L 3.328125 -4.578125 L 3.328125 0 L 1.703125 0 L 1.703125 -11.34375 L 9.703125 -11.34375 L 9.703125 -9.9375 Z M 3.328125 -9.9375 "/></g></g></g><g fill="#ffffff" fill-opacity="1"><g transform="translate(73.743456, 116.995258)"><g><path d="M 2.96875 -7.140625 C 3.238281 -7.640625 3.632812 -8.019531 4.15625 -8.28125 C 4.6875 -8.539062 5.332031 -8.671875 6.09375 -8.671875 L 6.09375 -7.15625 C 6.007812 -7.164062 5.890625 -7.171875 5.734375 -7.171875 C 4.890625 -7.171875 4.226562 -6.921875 3.75 -6.421875 C 3.269531 -5.921875 3.03125 -5.207031 3.03125 -4.28125 L 3.03125 0 L 1.46875 0 L 1.46875 -8.59375 L 2.96875 -8.59375 Z M 2.96875 -7.140625 "/></g></g></g><g fill="#ffffff" fill-opacity="1"><g transform="translate(80.383547, 116.995258)"><g><path d="M 5.15625 0.09375 C 4.300781 0.09375 3.53125 -0.09375 2.84375 -0.46875 C 2.164062 -0.84375 1.632812 -1.363281 1.25 -2.03125 C 0.875 -2.695312 0.6875 -3.453125 0.6875 -4.296875 C 0.6875 -5.140625 0.875 -5.890625 1.25 -6.546875 C 1.632812 -7.210938 2.164062 -7.734375 2.84375 -8.109375 C 3.53125 -8.484375 4.300781 -8.671875 5.15625 -8.671875 C 6.007812 -8.671875 6.769531 -8.484375 7.4375 -8.109375 C 8.113281 -7.734375 8.644531 -7.210938 9.03125 -6.546875 C 9.414062 -5.890625 9.609375 -5.140625 9.609375 -4.296875 C 9.609375 -3.453125 9.414062 -2.695312 9.03125 -2.03125 C 8.644531 -1.363281 8.113281 -0.84375 7.4375 -0.46875 C 6.769531 -0.09375 6.007812 0.09375 5.15625 0.09375 Z M 5.15625 -1.265625 C 5.707031 -1.265625 6.203125 -1.390625 6.640625 -1.640625 C 7.078125 -1.898438 7.414062 -2.257812 7.65625 -2.71875 C 7.90625 -3.175781 8.03125 -3.703125 8.03125 -4.296875 C 8.03125 -4.890625 7.90625 -5.414062 7.65625 -5.875 C 7.414062 -6.332031 7.078125 -6.6875 6.640625 -6.9375 C 6.203125 -7.1875 5.707031 -7.3125 5.15625 -7.3125 C 4.601562 -7.3125 4.109375 -7.1875 3.671875 -6.9375 C 3.234375 -6.6875 2.882812 -6.332031 2.625 -5.875 C 2.375 -5.414062 2.25 -4.890625 2.25 -4.296875 C 2.25 -3.703125 2.375 -3.175781 2.625 -2.71875 C 2.882812 -2.257812 3.234375 -1.898438 3.671875 -1.640625 C 4.109375 -1.390625 4.601562 -1.265625 5.15625 -1.265625 Z M 5.15625 -1.265625 "/></g></g></g><g fill="#ffffff" fill-opacity="1"><g transform="translate(90.667596, 116.995258)"><g><path d="M 6.0625 -8.671875 C 7.15625 -8.671875 8.019531 -8.351562 8.65625 -7.71875 C 9.300781 -7.082031 9.625 -6.15625 9.625 -4.9375 L 9.625 0 L 8.0625 0 L 8.0625 -4.765625 C 8.0625 -5.597656 7.863281 -6.222656 7.46875 -6.640625 C 7.070312 -7.066406 6.5 -7.28125 5.75 -7.28125 C 4.90625 -7.28125 4.238281 -7.03125 3.75 -6.53125 C 3.269531 -6.039062 3.03125 -5.335938 3.03125 -4.421875 L 3.03125 0 L 1.46875 0 L 1.46875 -8.59375 L 2.96875 -8.59375 L 2.96875 -7.296875 C 3.28125 -7.734375 3.703125 -8.070312 4.234375 -8.3125 C 4.773438 -8.550781 5.382812 -8.671875 6.0625 -8.671875 Z M 6.0625 -8.671875 "/></g></g></g><g fill="#ffffff" fill-opacity="1"><g transform="translate(101.696633, 116.995258)"><g><path d="M 6.296875 -0.5 C 6.078125 -0.300781 5.796875 -0.148438 5.453125 -0.046875 C 5.117188 0.046875 4.773438 0.09375 4.421875 0.09375 C 3.554688 0.09375 2.882812 -0.132812 2.40625 -0.59375 C 1.9375 -1.0625 1.703125 -1.726562 1.703125 -2.59375 L 1.703125 -7.3125 L 0.25 -7.3125 L 0.25 -8.59375 L 1.703125 -8.59375 L 1.703125 -10.46875 L 3.25 -10.46875 L 3.25 -8.59375 L 5.71875 -8.59375 L 5.71875 -7.3125 L 3.25 -7.3125 L 3.25 -2.65625 C 3.25 -2.1875 3.363281 -1.828125 3.59375 -1.578125 C 3.832031 -1.335938 4.171875 -1.21875 4.609375 -1.21875 C 5.078125 -1.21875 5.476562 -1.351562 5.8125 -1.625 Z M 6.296875 -0.5 "/></g></g></g><g fill="#ffffff" fill-opacity="1"><g transform="translate(108.401509, 116.995258)"><g><path d="M 0.921875 -5.125 L 5.28125 -5.125 L 5.28125 -3.78125 L 0.921875 -3.78125 Z M 0.921875 -5.125 "/></g></g></g><g fill="#ffffff" fill-opacity="1"><g transform="translate(114.604332, 116.995258)"><g><path d="M 9.9375 -1.40625 L 9.9375 0 L 1.703125 0 L 1.703125 -11.34375 L 9.703125 -11.34375 L 9.703125 -9.9375 L 3.328125 -9.9375 L 3.328125 -6.453125 L 9.015625 -6.453125 L 9.015625 -5.078125 L 3.328125 -5.078125 L 3.328125 -1.40625 Z M 9.9375 -1.40625 "/></g></g></g><g fill="#ffffff" fill-opacity="1"><g transform="translate(125.455219, 116.995258)"><g><path d="M 6.0625 -8.671875 C 7.15625 -8.671875 8.019531 -8.351562 8.65625 -7.71875 C 9.300781 -7.082031 9.625 -6.15625 9.625 -4.9375 L 9.625 0 L 8.0625 0 L 8.0625 -4.765625 C 8.0625 -5.597656 7.863281 -6.222656 7.46875 -6.640625 C 7.070312 -7.066406 6.5 -7.28125 5.75 -7.28125 C 4.90625 -7.28125 4.238281 -7.03125 3.75 -6.53125 C 3.269531 -6.039062 3.03125 -5.335938 3.03125 -4.421875 L 3.03125 0 L 1.46875 0 L 1.46875 -8.59375 L 2.96875 -8.59375 L 2.96875 -7.296875 C 3.28125 -7.734375 3.703125 -8.070312 4.234375 -8.3125 C 4.773438 -8.550781 5.382812 -8.671875 6.0625 -8.671875 Z M 6.0625 -8.671875 "/></g></g></g><g fill="#ffffff" fill-opacity="1"><g transform="translate(136.484255, 116.995258)"><g><path d="M 9.578125 -12.015625 L 9.578125 0 L 8.078125 0 L 8.078125 -1.359375 C 7.734375 -0.878906 7.296875 -0.515625 6.765625 -0.265625 C 6.242188 -0.0234375 5.660156 0.09375 5.015625 0.09375 C 4.191406 0.09375 3.445312 -0.0859375 2.78125 -0.453125 C 2.125 -0.816406 1.609375 -1.332031 1.234375 -2 C 0.867188 -2.664062 0.6875 -3.429688 0.6875 -4.296875 C 0.6875 -5.160156 0.867188 -5.921875 1.234375 -6.578125 C 1.609375 -7.234375 2.125 -7.742188 2.78125 -8.109375 C 3.445312 -8.484375 4.191406 -8.671875 5.015625 -8.671875 C 5.640625 -8.671875 6.207031 -8.550781 6.71875 -8.3125 C 7.238281 -8.082031 7.671875 -7.742188 8.015625 -7.296875 L 8.015625 -12.015625 Z M 5.15625 -1.265625 C 5.695312 -1.265625 6.1875 -1.390625 6.625 -1.640625 C 7.070312 -1.898438 7.414062 -2.257812 7.65625 -2.71875 C 7.90625 -3.175781 8.03125 -3.703125 8.03125 -4.296875 C 8.03125 -4.890625 7.90625 -5.414062 7.65625 -5.875 C 7.414062 -6.332031 7.070312 -6.6875 6.625 -6.9375 C 6.1875 -7.1875 5.695312 -7.3125 5.15625 -7.3125 C 4.601562 -7.3125 4.109375 -7.1875 3.671875 -6.9375 C 3.234375 -6.6875 2.882812 -6.332031 2.625 -5.875 C 2.375 -5.414062 2.25 -4.890625 2.25 -4.296875 C 2.25 -3.703125 2.375 -3.175781 2.625 -2.71875 C 2.882812 -2.257812 3.234375 -1.898438 3.671875 -1.640625 C 4.109375 -1.390625 4.601562 -1.265625 5.15625 -1.265625 Z M 5.15625 -1.265625 "/></g></g></g><g fill="#ffffff" fill-opacity="1"><g transform="translate(147.529486, 116.995258)"><g/></g></g><g fill="#ffffff" fill-opacity="1"><g transform="translate(151.886034, 116.995258)"><g><path d="M 1.703125 -11.34375 L 6.484375 -11.34375 C 7.679688 -11.34375 8.742188 -11.101562 9.671875 -10.625 C 10.597656 -10.15625 11.316406 -9.488281 11.828125 -8.625 C 12.347656 -7.769531 12.609375 -6.785156 12.609375 -5.671875 C 12.609375 -4.554688 12.347656 -3.566406 11.828125 -2.703125 C 11.316406 -1.847656 10.597656 -1.179688 9.671875 -0.703125 C 8.742188 -0.234375 7.679688 0 6.484375 0 L 1.703125 0 Z M 6.390625 -1.40625 C 7.304688 -1.40625 8.109375 -1.582031 8.796875 -1.9375 C 9.492188 -2.300781 10.03125 -2.800781 10.40625 -3.4375 C 10.789062 -4.082031 10.984375 -4.828125 10.984375 -5.671875 C 10.984375 -6.515625 10.789062 -7.253906 10.40625 -7.890625 C 10.03125 -8.535156 9.492188 -9.035156 8.796875 -9.390625 C 8.109375 -9.753906 7.304688 -9.9375 6.390625 -9.9375 L 3.328125 -9.9375 L 3.328125 -1.40625 Z M 6.390625 -1.40625 "/></g></g></g><g fill="#ffffff" fill-opacity="1"><g transform="translate(165.263398, 116.995258)"><g><path d="M 9.234375 -4.25 C 9.234375 -4.125 9.222656 -3.96875 9.203125 -3.78125 L 2.234375 -3.78125 C 2.328125 -3.019531 2.65625 -2.410156 3.21875 -1.953125 C 3.789062 -1.492188 4.5 -1.265625 5.34375 -1.265625 C 6.375 -1.265625 7.203125 -1.609375 7.828125 -2.296875 L 8.6875 -1.296875 C 8.300781 -0.835938 7.816406 -0.488281 7.234375 -0.25 C 6.660156 -0.0195312 6.015625 0.09375 5.296875 0.09375 C 4.390625 0.09375 3.582031 -0.0859375 2.875 -0.453125 C 2.175781 -0.828125 1.632812 -1.347656 1.25 -2.015625 C 0.875 -2.691406 0.6875 -3.453125 0.6875 -4.296875 C 0.6875 -5.128906 0.867188 -5.878906 1.234375 -6.546875 C 1.609375 -7.210938 2.125 -7.734375 2.78125 -8.109375 C 3.4375 -8.484375 4.171875 -8.671875 4.984375 -8.671875 C 5.804688 -8.671875 6.539062 -8.484375 7.1875 -8.109375 C 7.832031 -7.734375 8.332031 -7.210938 8.6875 -6.546875 C 9.050781 -5.878906 9.234375 -5.113281 9.234375 -4.25 Z M 4.984375 -7.359375 C 4.242188 -7.359375 3.617188 -7.128906 3.109375 -6.671875 C 2.609375 -6.222656 2.316406 -5.628906 2.234375 -4.890625 L 7.75 -4.890625 C 7.65625 -5.617188 7.359375 -6.210938 6.859375 -6.671875 C 6.359375 -7.128906 5.734375 -7.359375 4.984375 -7.359375 Z M 4.984375 -7.359375 "/></g></g></g><g fill="#ffffff" fill-opacity="1"><g transform="translate(175.174954, 116.995258)"><g><path d="M 9.078125 -8.59375 L 5.3125 0 L 3.734375 0 L -0.03125 -8.59375 L 1.59375 -8.59375 L 4.53125 -1.703125 L 7.546875 -8.59375 Z M 9.078125 -8.59375 "/></g></g></g><g fill="#ffffff" fill-opacity="1"><g transform="translate(184.228157, 116.995258)"><g><path d="M 9.234375 -4.25 C 9.234375 -4.125 9.222656 -3.96875 9.203125 -3.78125 L 2.234375 -3.78125 C 2.328125 -3.019531 2.65625 -2.410156 3.21875 -1.953125 C 3.789062 -1.492188 4.5 -1.265625 5.34375 -1.265625 C 6.375 -1.265625 7.203125 -1.609375 7.828125 -2.296875 L 8.6875 -1.296875 C 8.300781 -0.835938 7.816406 -0.488281 7.234375 -0.25 C 6.660156 -0.0195312 6.015625 0.09375 5.296875 0.09375 C 4.390625 0.09375 3.582031 -0.0859375 2.875 -0.453125 C 2.175781 -0.828125 1.632812 -1.347656 1.25 -2.015625 C 0.875 -2.691406 0.6875 -3.453125 0.6875 -4.296875 C 0.6875 -5.128906 0.867188 -5.878906 1.234375 -6.546875 C 1.609375 -7.210938 2.125 -7.734375 2.78125 -8.109375 C 3.4375 -8.484375 4.171875 -8.671875 4.984375 -8.671875 C 5.804688 -8.671875 6.539062 -8.484375 7.1875 -8.109375 C 7.832031 -7.734375 8.332031 -7.210938 8.6875 -6.546875 C 9.050781 -5.878906 9.234375 -5.113281 9.234375 -4.25 Z M 4.984375 -7.359375 C 4.242188 -7.359375 3.617188 -7.128906 3.109375 -6.671875 C 2.609375 -6.222656 2.316406 -5.628906 2.234375 -4.890625 L 7.75 -4.890625 C 7.65625 -5.617188 7.359375 -6.210938 6.859375 -6.671875 C 6.359375 -7.128906 5.734375 -7.359375 4.984375 -7.359375 Z M 4.984375 -7.359375 "/></g></g></g><g fill="#ffffff" fill-opacity="1"><g transform="translate(194.139712, 116.995258)"><g><path d="M 1.46875 -12.015625 L 3.03125 -12.015625 L 3.03125 0 L 1.46875 0 Z M 1.46875 -12.015625 "/></g></g></g><g fill="#ffffff" fill-opacity="1"><g transform="translate(198.658217, 116.995258)"><g><path d="M 5.15625 0.09375 C 4.300781 0.09375 3.53125 -0.09375 2.84375 -0.46875 C 2.164062 -0.84375 1.632812 -1.363281 1.25 -2.03125 C 0.875 -2.695312 0.6875 -3.453125 0.6875 -4.296875 C 0.6875 -5.140625 0.875 -5.890625 1.25 -6.546875 C 1.632812 -7.210938 2.164062 -7.734375 2.84375 -8.109375 C 3.53125 -8.484375 4.300781 -8.671875 5.15625 -8.671875 C 6.007812 -8.671875 6.769531 -8.484375 7.4375 -8.109375 C 8.113281 -7.734375 8.644531 -7.210938 9.03125 -6.546875 C 9.414062 -5.890625 9.609375 -5.140625 9.609375 -4.296875 C 9.609375 -3.453125 9.414062 -2.695312 9.03125 -2.03125 C 8.644531 -1.363281 8.113281 -0.84375 7.4375 -0.46875 C 6.769531 -0.09375 6.007812 0.09375 5.15625 0.09375 Z M 5.15625 -1.265625 C 5.707031 -1.265625 6.203125 -1.390625 6.640625 -1.640625 C 7.078125 -1.898438 7.414062 -2.257812 7.65625 -2.71875 C 7.90625 -3.175781 8.03125 -3.703125 8.03125 -4.296875 C 8.03125 -4.890625 7.90625 -5.414062 7.65625 -5.875 C 7.414062 -6.332031 7.078125 -6.6875 6.640625 -6.9375 C 6.203125 -7.1875 5.707031 -7.3125 5.15625 -7.3125 C 4.601562 -7.3125 4.109375 -7.1875 3.671875 -6.9375 C 3.234375 -6.6875 2.882812 -6.332031 2.625 -5.875 C 2.375 -5.414062 2.25 -4.890625 2.25 -4.296875 C 2.25 -3.703125 2.375 -3.175781 2.625 -2.71875 C 2.882812 -2.257812 3.234375 -1.898438 3.671875 -1.640625 C 4.109375 -1.390625 4.601562 -1.265625 5.15625 -1.265625 Z M 5.15625 -1.265625 "/></g></g></g><g fill="#ffffff" fill-opacity="1"><g transform="translate(208.942267, 116.995258)"><g><path d="M 6.03125 -8.671875 C 6.863281 -8.671875 7.609375 -8.484375 8.265625 -8.109375 C 8.921875 -7.742188 9.4375 -7.234375 9.8125 -6.578125 C 10.1875 -5.921875 10.375 -5.160156 10.375 -4.296875 C 10.375 -3.429688 10.1875 -2.664062 9.8125 -2 C 9.4375 -1.332031 8.921875 -0.816406 8.265625 -0.453125 C 7.609375 -0.0859375 6.863281 0.09375 6.03125 0.09375 C 5.414062 0.09375 4.847656 -0.0195312 4.328125 -0.25 C 3.816406 -0.488281 3.382812 -0.835938 3.03125 -1.296875 L 3.03125 3.140625 L 1.46875 3.140625 L 1.46875 -8.59375 L 2.96875 -8.59375 L 2.96875 -7.234375 C 3.3125 -7.703125 3.75 -8.054688 4.28125 -8.296875 C 4.8125 -8.546875 5.394531 -8.671875 6.03125 -8.671875 Z M 5.890625 -1.265625 C 6.441406 -1.265625 6.9375 -1.390625 7.375 -1.640625 C 7.8125 -1.898438 8.15625 -2.257812 8.40625 -2.71875 C 8.664062 -3.175781 8.796875 -3.703125 8.796875 -4.296875 C 8.796875 -4.890625 8.664062 -5.414062 8.40625 -5.875 C 8.15625 -6.332031 7.8125 -6.6875 7.375 -6.9375 C 6.9375 -7.1875 6.441406 -7.3125 5.890625 -7.3125 C 5.359375 -7.3125 4.875 -7.179688 4.4375 -6.921875 C 4 -6.671875 3.648438 -6.316406 3.390625 -5.859375 C 3.140625 -5.410156 3.015625 -4.890625 3.015625 -4.296875 C 3.015625 -3.703125 3.140625 -3.175781 3.390625 -2.71875 C 3.640625 -2.257812 3.984375 -1.898438 4.421875 -1.640625 C 4.867188 -1.390625 5.359375 -1.265625 5.890625 -1.265625 Z M 5.890625 -1.265625 "/></g></g></g><g fill="#ffffff" fill-opacity="1"><g transform="translate(219.987497, 116.995258)"><g><path d="M 9.234375 -4.25 C 9.234375 -4.125 9.222656 -3.96875 9.203125 -3.78125 L 2.234375 -3.78125 C 2.328125 -3.019531 2.65625 -2.410156 3.21875 -1.953125 C 3.789062 -1.492188 4.5 -1.265625 5.34375 -1.265625 C 6.375 -1.265625 7.203125 -1.609375 7.828125 -2.296875 L 8.6875 -1.296875 C 8.300781 -0.835938 7.816406 -0.488281 7.234375 -0.25 C 6.660156 -0.0195312 6.015625 0.09375 5.296875 0.09375 C 4.390625 0.09375 3.582031 -0.0859375 2.875 -0.453125 C 2.175781 -0.828125 1.632812 -1.347656 1.25 -2.015625 C 0.875 -2.691406 0.6875 -3.453125 0.6875 -4.296875 C 0.6875 -5.128906 0.867188 -5.878906 1.234375 -6.546875 C 1.609375 -7.210938 2.125 -7.734375 2.78125 -8.109375 C 3.4375 -8.484375 4.171875 -8.671875 4.984375 -8.671875 C 5.804688 -8.671875 6.539062 -8.484375 7.1875 -8.109375 C 7.832031 -7.734375 8.332031 -7.210938 8.6875 -6.546875 C 9.050781 -5.878906 9.234375 -5.113281 9.234375 -4.25 Z M 4.984375 -7.359375 C 4.242188 -7.359375 3.617188 -7.128906 3.109375 -6.671875 C 2.609375 -6.222656 2.316406 -5.628906 2.234375 -4.890625 L 7.75 -4.890625 C 7.65625 -5.617188 7.359375 -6.210938 6.859375 -6.671875 C 6.359375 -7.128906 5.734375 -7.359375 4.984375 -7.359375 Z M 4.984375 -7.359375 "/></g></g></g><g fill="#ffffff" fill-opacity="1"><g transform="translate(229.899053, 116.995258)"><g><path d="M 2.96875 -7.140625 C 3.238281 -7.640625 3.632812 -8.019531 4.15625 -8.28125 C 4.6875 -8.539062 5.332031 -8.671875 6.09375 -8.671875 L 6.09375 -7.15625 C 6.007812 -7.164062 5.890625 -7.171875 5.734375 -7.171875 C 4.890625 -7.171875 4.226562 -6.921875 3.75 -6.421875 C 3.269531 -5.921875 3.03125 -5.207031 3.03125 -4.28125 L 3.03125 0 L 1.46875 0 L 1.46875 -8.59375 L 2.96875 -8.59375 Z M 2.96875 -7.140625 "/></g></g></g></svg>