<svg xmlns="http://www.w3.org/2000/svg" xmlns:xlink="http://www.w3.org/1999/xlink" width="500" zoomAndPan="magnify" viewBox="0 0 375 149.999998" height="200" preserveAspectRatio="xMidYMid meet" version="1.0"><defs><g/></defs><g fill="#ffffff" fill-opacity="1"><g transform="translate(302.171237, 69.694811)"><g><path d="M 7.21875 -20.765625 L 11.390625 -20.765625 L 3.25 2.46875 L -0.90625 2.46875 Z M 7.21875 -20.765625 "/></g></g></g><g fill="#ffffff" fill-opacity="1"><g transform="translate(312.401009, 69.694811)"><g><path d="M 13.578125 -10.53125 L 13.578125 -6.734375 L 1.4375 -2.25 L 1.4375 -5.84375 L 9.296875 -8.625 L 1.4375 -11.421875 L 1.4375 -15.015625 Z M 13.578125 -10.53125 "/></g></g></g><g fill="#ffffff" fill-opacity="1"><g transform="translate(48.138262, 69.694811)"><g><path d="M 13.578125 -11.421875 L 5.71875 -8.625 L 13.578125 -5.84375 L 13.578125 -2.25 L 1.4375 -6.734375 L 1.4375 -10.53125 L 13.578125 -15.015625 Z M 13.578125 -11.421875 "/></g></g></g><g fill="#ffffff" fill-opacity="1"><g transform="translate(75.226916, 70.151829)"><g><path d="M 18.078125 -12.234375 L 23.9375 -12.234375 L 23.9375 -2.515625 C 22.59375 -1.554688 21.050781 -0.816406 19.3125 -0.296875 C 17.570312 0.210938 15.828125 0.46875 14.078125 0.46875 C 11.617188 0.46875 9.40625 -0.0507812 7.4375 -1.09375 C 5.476562 -2.132812 3.9375 -3.582031 2.8125 -5.4375 C 1.695312 -7.289062 1.140625 -9.390625 1.140625 -11.734375 C 1.140625 -14.078125 1.695312 -16.175781 2.8125 -18.03125 C 3.9375 -19.894531 5.492188 -21.34375 7.484375 -22.375 C 9.472656 -23.414062 11.71875 -23.9375 14.21875 -23.9375 C 16.40625 -23.9375 18.367188 -23.566406 20.109375 -22.828125 C 21.859375 -22.097656 23.316406 -21.039062 24.484375 -19.65625 L 20.25 -15.828125 C 18.664062 -17.566406 16.765625 -18.4375 14.546875 -18.4375 C 12.535156 -18.4375 10.914062 -17.828125 9.6875 -16.609375 C 8.457031 -15.390625 7.84375 -13.765625 7.84375 -11.734375 C 7.84375 -10.441406 8.117188 -9.285156 8.671875 -8.265625 C 9.234375 -7.242188 10.019531 -6.445312 11.03125 -5.875 C 12.039062 -5.3125 13.191406 -5.03125 14.484375 -5.03125 C 15.753906 -5.03125 16.953125 -5.285156 18.078125 -5.796875 Z M 18.078125 -12.234375 "/></g></g></g><g fill="#ffffff" fill-opacity="1"><g transform="translate(101.023286, 70.151829)"><g><path d="M 9.796875 -18.46875 C 12.804688 -18.46875 15.101562 -17.78125 16.6875 -16.40625 C 18.28125 -15.03125 19.078125 -12.925781 19.078125 -10.09375 L 19.078125 0 L 13.140625 0 L 13.140625 -2.34375 C 12.222656 -0.582031 10.4375 0.296875 7.78125 0.296875 C 6.375 0.296875 5.15625 0.0507812 4.125 -0.4375 C 3.09375 -0.925781 2.3125 -1.585938 1.78125 -2.421875 C 1.257812 -3.265625 1 -4.222656 1 -5.296875 C 1 -7.015625 1.660156 -8.347656 2.984375 -9.296875 C 4.304688 -10.253906 6.34375 -10.734375 9.09375 -10.734375 L 12.703125 -10.734375 C 12.597656 -12.648438 11.316406 -13.609375 8.859375 -13.609375 C 7.984375 -13.609375 7.097656 -13.46875 6.203125 -13.1875 C 5.304688 -12.914062 4.546875 -12.53125 3.921875 -12.03125 L 1.78125 -16.359375 C 2.78125 -17.035156 4 -17.554688 5.4375 -17.921875 C 6.882812 -18.285156 8.335938 -18.46875 9.796875 -18.46875 Z M 9.5625 -3.71875 C 10.289062 -3.71875 10.9375 -3.894531 11.5 -4.25 C 12.0625 -4.613281 12.460938 -5.140625 12.703125 -5.828125 L 12.703125 -7.40625 L 9.953125 -7.40625 C 8.097656 -7.40625 7.171875 -6.789062 7.171875 -5.5625 C 7.171875 -5.007812 7.382812 -4.5625 7.8125 -4.21875 C 8.238281 -3.882812 8.820312 -3.71875 9.5625 -3.71875 Z M 9.5625 -3.71875 "/></g></g></g><g fill="#ffffff" fill-opacity="1"><g transform="translate(122.062401, 70.151829)"><g><path d="M 2.046875 -24.875 L 8.421875 -24.875 L 8.421875 0 L 2.046875 0 Z M 2.046875 -24.875 "/></g></g></g><g fill="#ffffff" fill-opacity="1"><g transform="translate(132.548455, 70.151829)"><g><path d="M 2.046875 -18.171875 L 8.421875 -18.171875 L 8.421875 0 L 2.046875 0 Z M 5.234375 -20.1875 C 4.078125 -20.1875 3.140625 -20.507812 2.421875 -21.15625 C 1.703125 -21.800781 1.34375 -22.609375 1.34375 -23.578125 C 1.34375 -24.535156 1.703125 -25.335938 2.421875 -25.984375 C 3.140625 -26.628906 4.078125 -26.953125 5.234375 -26.953125 C 6.398438 -26.953125 7.335938 -26.644531 8.046875 -26.03125 C 8.765625 -25.414062 9.125 -24.628906 9.125 -23.671875 C 9.125 -22.671875 8.765625 -21.835938 8.046875 -21.171875 C 7.335938 -20.515625 6.398438 -20.1875 5.234375 -20.1875 Z M 5.234375 -20.1875 "/></g></g></g><g fill="#ffffff" fill-opacity="1"><g transform="translate(143.034508, 70.151829)"><g><path d="M 13.875 -18.46875 C 16.132812 -18.46875 17.953125 -17.796875 19.328125 -16.453125 C 20.703125 -15.117188 21.390625 -13.097656 21.390625 -10.390625 L 21.390625 0 L 15.015625 0 L 15.015625 -9.359375 C 15.015625 -11.835938 14.019531 -13.078125 12.03125 -13.078125 C 10.9375 -13.078125 10.0625 -12.71875 9.40625 -12 C 8.75 -11.289062 8.421875 -10.21875 8.421875 -8.78125 L 8.421875 0 L 2.046875 0 L 2.046875 -18.171875 L 8.109375 -18.171875 L 8.109375 -16.203125 C 8.828125 -16.929688 9.675781 -17.488281 10.65625 -17.875 C 11.644531 -18.269531 12.71875 -18.46875 13.875 -18.46875 Z M 13.875 -18.46875 "/></g></g></g><g fill="#ffffff" fill-opacity="1"><g transform="translate(166.351754, 70.151829)"><g><path d="M 21.359375 -24.875 L 21.359375 0 L 15.296875 0 L 15.296875 -1.8125 C 14.109375 -0.40625 12.328125 0.296875 9.953125 0.296875 C 8.304688 0.296875 6.800781 -0.0859375 5.4375 -0.859375 C 4.070312 -1.628906 2.988281 -2.726562 2.1875 -4.15625 C 1.394531 -5.582031 1 -7.238281 1 -9.125 C 1 -11 1.394531 -12.644531 2.1875 -14.0625 C 2.988281 -15.488281 4.070312 -16.578125 5.4375 -17.328125 C 6.800781 -18.085938 8.304688 -18.46875 9.953125 -18.46875 C 12.128906 -18.46875 13.804688 -17.84375 14.984375 -16.59375 L 14.984375 -24.875 Z M 11.296875 -4.765625 C 12.390625 -4.765625 13.296875 -5.148438 14.015625 -5.921875 C 14.734375 -6.691406 15.09375 -7.757812 15.09375 -9.125 C 15.09375 -10.457031 14.738281 -11.503906 14.03125 -12.265625 C 13.332031 -13.023438 12.421875 -13.40625 11.296875 -13.40625 C 10.179688 -13.40625 9.265625 -13.023438 8.546875 -12.265625 C 7.835938 -11.503906 7.484375 -10.457031 7.484375 -9.125 C 7.484375 -7.757812 7.835938 -6.691406 8.546875 -5.921875 C 9.265625 -5.148438 10.179688 -4.765625 11.296875 -4.765625 Z M 11.296875 -4.765625 "/></g></g></g><g fill="#ffffff" fill-opacity="1"><g transform="translate(189.735977, 70.151829)"><g><path d="M 11.171875 0.296875 C 9.222656 0.296875 7.460938 -0.101562 5.890625 -0.90625 C 4.328125 -1.707031 3.101562 -2.820312 2.21875 -4.25 C 1.34375 -5.6875 0.90625 -7.3125 0.90625 -9.125 C 0.90625 -10.90625 1.34375 -12.507812 2.21875 -13.9375 C 3.101562 -15.375 4.320312 -16.488281 5.875 -17.28125 C 7.4375 -18.070312 9.203125 -18.46875 11.171875 -18.46875 C 13.128906 -18.46875 14.890625 -18.070312 16.453125 -17.28125 C 18.023438 -16.488281 19.242188 -15.382812 20.109375 -13.96875 C 20.984375 -12.550781 21.421875 -10.9375 21.421875 -9.125 C 21.421875 -7.3125 20.984375 -5.6875 20.109375 -4.25 C 19.242188 -2.820312 18.023438 -1.707031 16.453125 -0.90625 C 14.890625 -0.101562 13.128906 0.296875 11.171875 0.296875 Z M 11.171875 -4.765625 C 12.285156 -4.765625 13.195312 -5.148438 13.90625 -5.921875 C 14.625 -6.691406 14.984375 -7.757812 14.984375 -9.125 C 14.984375 -10.457031 14.625 -11.503906 13.90625 -12.265625 C 13.195312 -13.023438 12.285156 -13.40625 11.171875 -13.40625 C 10.046875 -13.40625 9.125 -13.023438 8.40625 -12.265625 C 7.695312 -11.503906 7.34375 -10.457031 7.34375 -9.125 C 7.34375 -7.757812 7.695312 -6.691406 8.40625 -5.921875 C 9.125 -5.148438 10.046875 -4.765625 11.171875 -4.765625 Z M 11.171875 -4.765625 "/></g></g></g><g fill="#ffffff" fill-opacity="1"><g transform="translate(212.048158, 70.151829)"><g><path d="M 13.078125 -23.46875 C 15.203125 -23.46875 17.046875 -23.113281 18.609375 -22.40625 C 20.171875 -21.707031 21.375 -20.703125 22.21875 -19.390625 C 23.070312 -18.085938 23.5 -16.550781 23.5 -14.78125 C 23.5 -13.019531 23.070312 -11.488281 22.21875 -10.1875 C 21.375 -8.894531 20.171875 -7.894531 18.609375 -7.1875 C 17.046875 -6.488281 15.203125 -6.140625 13.078125 -6.140625 L 8.984375 -6.140625 L 8.984375 0 L 2.34375 0 L 2.34375 -23.46875 Z M 12.671875 -11.359375 C 14.035156 -11.359375 15.0625 -11.65625 15.75 -12.25 C 16.445312 -12.84375 16.796875 -13.6875 16.796875 -14.78125 C 16.796875 -15.882812 16.445312 -16.734375 15.75 -17.328125 C 15.0625 -17.929688 14.035156 -18.234375 12.671875 -18.234375 L 8.984375 -18.234375 L 8.984375 -11.359375 Z M 12.671875 -11.359375 "/></g></g></g><g fill="#ffffff" fill-opacity="1"><g transform="translate(236.738967, 70.151829)"><g><path d="M 14.59375 -0.734375 C 14.050781 -0.398438 13.394531 -0.144531 12.625 0.03125 C 11.851562 0.207031 11.03125 0.296875 10.15625 0.296875 C 7.789062 0.296875 5.96875 -0.28125 4.6875 -1.4375 C 3.414062 -2.601562 2.78125 -4.335938 2.78125 -6.640625 L 2.78125 -12.734375 L 0.140625 -12.734375 L 0.140625 -17.5 L 2.78125 -17.5 L 2.78125 -22.234375 L 9.15625 -22.234375 L 9.15625 -17.5 L 13.3125 -17.5 L 13.3125 -12.734375 L 9.15625 -12.734375 L 9.15625 -6.703125 C 9.15625 -6.054688 9.328125 -5.546875 9.671875 -5.171875 C 10.015625 -4.804688 10.476562 -4.625 11.0625 -4.625 C 11.800781 -4.625 12.453125 -4.816406 13.015625 -5.203125 Z M 14.59375 -0.734375 "/></g></g></g><g fill="#ffffff" fill-opacity="1"><g transform="translate(251.714272, 70.151829)"><g><path d="M 20.390625 -12.234375 C 21.734375 -11.765625 22.78125 -11.03125 23.53125 -10.03125 C 24.289062 -9.039062 24.671875 -7.84375 24.671875 -6.4375 C 24.671875 -4.382812 23.84375 -2.796875 22.1875 -1.671875 C 20.539062 -0.554688 18.148438 0 15.015625 0 L 2.34375 0 L 2.34375 -23.46875 L 14.34375 -23.46875 C 17.34375 -23.46875 19.625 -22.914062 21.1875 -21.8125 C 22.75 -20.707031 23.53125 -19.210938 23.53125 -17.328125 C 23.53125 -16.210938 23.253906 -15.210938 22.703125 -14.328125 C 22.160156 -13.453125 21.390625 -12.753906 20.390625 -12.234375 Z M 8.921875 -18.671875 L 8.921875 -14.15625 L 13.484375 -14.15625 C 15.710938 -14.15625 16.828125 -14.914062 16.828125 -16.4375 C 16.828125 -17.925781 15.710938 -18.671875 13.484375 -18.671875 Z M 14.484375 -4.796875 C 16.804688 -4.796875 17.96875 -5.585938 17.96875 -7.171875 C 17.96875 -8.765625 16.804688 -9.5625 14.484375 -9.5625 L 8.921875 -9.5625 L 8.921875 -4.796875 Z M 14.484375 -4.796875 "/></g></g></g><g fill="#ffffff" fill-opacity="1"><g transform="translate(277.477123, 70.151829)"><g><path d="M 8.109375 -16 C 8.765625 -16.820312 9.609375 -17.4375 10.640625 -17.84375 C 11.679688 -18.257812 12.875 -18.46875 14.21875 -18.46875 L 14.21875 -12.734375 C 13.632812 -12.804688 13.15625 -12.84375 12.78125 -12.84375 C 11.414062 -12.84375 10.347656 -12.472656 9.578125 -11.734375 C 8.804688 -10.992188 8.421875 -9.863281 8.421875 -8.34375 L 8.421875 0 L 2.046875 0 L 2.046875 -18.171875 L 8.109375 -18.171875 Z M 8.109375 -16 "/></g></g></g><g fill="#ffffff" fill-opacity="1"><g transform="translate(142.926583, 95.930633)"><g><path d="M 8.859375 -9.375 L 3.3125 -9.375 L 3.3125 -6.1875 L 8.328125 -6.1875 L 8.328125 -4.53125 L 3.3125 -4.53125 L 3.3125 0 L 1.453125 0 L 1.453125 -11.046875 L 8.875 -11.046875 Z M 8.859375 -9.375 "/></g></g></g><g fill="#ffffff" fill-opacity="1"><g transform="translate(151.995595, 95.930633)"><g><path d="M 3.15625 -8.390625 L 3.15625 -6.71875 C 3.738281 -7.875 4.707031 -8.453125 6.0625 -8.453125 L 6.0625 -6.71875 C 5.226562 -6.757812 4.550781 -6.5625 4.03125 -6.125 C 3.519531 -5.695312 3.226562 -5.117188 3.15625 -4.390625 L 3.15625 0 L 1.34375 0 L 1.34375 -8.390625 Z M 3.15625 -8.390625 "/></g></g></g><g fill="#ffffff" fill-opacity="1"><g transform="translate(158.209845, 95.930633)"><g><path d="M 4.9375 -8.453125 C 6.226562 -8.453125 7.28125 -8.0625 8.09375 -7.28125 C 8.90625 -6.5 9.3125 -5.472656 9.3125 -4.203125 C 9.3125 -2.929688 8.90625 -1.898438 8.09375 -1.109375 C 7.28125 -0.328125 6.226562 0.0625 4.9375 0.0625 C 3.632812 0.0625 2.578125 -0.328125 1.765625 -1.109375 C 0.953125 -1.898438 0.546875 -2.929688 0.546875 -4.203125 C 0.546875 -5.472656 0.953125 -6.5 1.765625 -7.28125 C 2.578125 -8.0625 3.632812 -8.453125 4.9375 -8.453125 Z M 4.9375 -6.890625 C 4.175781 -6.890625 3.554688 -6.632812 3.078125 -6.125 C 2.597656 -5.625 2.359375 -4.976562 2.359375 -4.1875 C 2.359375 -3.375 2.597656 -2.710938 3.078125 -2.203125 C 3.554688 -1.703125 4.175781 -1.453125 4.9375 -1.453125 C 5.695312 -1.453125 6.3125 -1.703125 6.78125 -2.203125 C 7.257812 -2.710938 7.5 -3.375 7.5 -4.1875 C 7.5 -4.976562 7.257812 -5.625 6.78125 -6.125 C 6.300781 -6.632812 5.6875 -6.890625 4.9375 -6.890625 Z M 4.9375 -6.890625 "/></g></g></g><g fill="#ffffff" fill-opacity="1"><g transform="translate(168.067475, 95.930633)"><g><path d="M 6.25 -8.453125 C 7.226562 -8.453125 7.992188 -8.164062 8.546875 -7.59375 C 9.097656 -7.019531 9.375 -6.226562 9.375 -5.21875 L 9.375 0 L 7.5625 0 L 7.5625 -4.71875 C 7.5625 -5.351562 7.378906 -5.847656 7.015625 -6.203125 C 6.660156 -6.566406 6.171875 -6.75 5.546875 -6.75 C 4.867188 -6.738281 4.316406 -6.519531 3.890625 -6.09375 C 3.460938 -5.675781 3.21875 -5.132812 3.15625 -4.46875 L 3.15625 0 L 1.34375 0 L 1.34375 -8.390625 L 3.15625 -8.390625 L 3.15625 -6.78125 C 3.726562 -7.894531 4.757812 -8.453125 6.25 -8.453125 Z M 6.25 -8.453125 "/></g></g></g><g fill="#ffffff" fill-opacity="1"><g transform="translate(178.524447, 95.930633)"><g><path d="M 5.640625 -1.921875 L 6.09375 -0.53125 C 5.394531 -0.125 4.703125 0.078125 4.015625 0.078125 C 3.335938 0.078125 2.773438 -0.125 2.328125 -0.53125 C 1.890625 -0.945312 1.671875 -1.554688 1.671875 -2.359375 L 1.671875 -6.71875 L 0.484375 -6.71875 L 0.484375 -8.078125 L 1.671875 -8.078125 L 1.671875 -10.390625 L 3.46875 -10.390625 L 3.46875 -8.078125 L 5.953125 -8.078125 L 5.953125 -6.71875 L 3.46875 -6.71875 L 3.46875 -2.703125 C 3.46875 -2.273438 3.539062 -1.976562 3.6875 -1.8125 C 3.832031 -1.644531 4.0625 -1.5625 4.375 -1.5625 C 4.707031 -1.5625 5.128906 -1.679688 5.640625 -1.921875 Z M 5.640625 -1.921875 "/></g></g></g><g fill="#ffffff" fill-opacity="1"><g transform="translate(184.943736, 95.930633)"><g><path d="M 4.84375 -4.1875 L 0.96875 -4.1875 L 0.96875 -5.421875 L 4.84375 -5.421875 Z M 4.84375 -4.1875 "/></g></g></g><g fill="#ffffff" fill-opacity="1"><g transform="translate(190.747908, 95.930633)"><g><path d="M 9.34375 -9.375 L 3.3125 -9.375 L 3.3125 -6.390625 L 8.71875 -6.390625 L 8.71875 -4.71875 L 3.3125 -4.71875 L 3.3125 -1.671875 L 9.53125 -1.671875 L 9.53125 0 L 1.453125 0 L 1.453125 -11.046875 L 9.34375 -11.046875 Z M 9.34375 -9.375 "/></g></g></g><g fill="#ffffff" fill-opacity="1"><g transform="translate(201.094468, 95.930633)"><g><path d="M 6.25 -8.453125 C 7.226562 -8.453125 7.992188 -8.164062 8.546875 -7.59375 C 9.097656 -7.019531 9.375 -6.226562 9.375 -5.21875 L 9.375 0 L 7.5625 0 L 7.5625 -4.71875 C 7.5625 -5.351562 7.378906 -5.847656 7.015625 -6.203125 C 6.660156 -6.566406 6.171875 -6.75 5.546875 -6.75 C 4.867188 -6.738281 4.316406 -6.519531 3.890625 -6.09375 C 3.460938 -5.675781 3.21875 -5.132812 3.15625 -4.46875 L 3.15625 0 L 1.34375 0 L 1.34375 -8.390625 L 3.15625 -8.390625 L 3.15625 -6.78125 C 3.726562 -7.894531 4.757812 -8.453125 6.25 -8.453125 Z M 6.25 -8.453125 "/></g></g></g><g fill="#ffffff" fill-opacity="1"><g transform="translate(211.55144, 95.930633)"><g><path d="M 9.34375 -11.703125 L 9.34375 0 L 7.53125 0 L 7.53125 -1.4375 C 6.90625 -0.425781 5.921875 0.078125 4.578125 0.078125 C 3.378906 0.078125 2.40625 -0.316406 1.65625 -1.109375 C 0.914062 -1.898438 0.546875 -2.941406 0.546875 -4.234375 C 0.546875 -5.492188 0.914062 -6.515625 1.65625 -7.296875 C 2.394531 -8.078125 3.359375 -8.46875 4.546875 -8.46875 C 5.890625 -8.46875 6.882812 -7.957031 7.53125 -6.9375 L 7.53125 -11.703125 Z M 3.09375 -2.203125 C 3.570312 -1.691406 4.191406 -1.4375 4.953125 -1.4375 C 5.710938 -1.4375 6.332031 -1.691406 6.8125 -2.203125 C 7.289062 -2.710938 7.53125 -3.367188 7.53125 -4.171875 C 7.53125 -4.972656 7.289062 -5.628906 6.8125 -6.140625 C 6.332031 -6.660156 5.710938 -6.921875 4.953125 -6.921875 C 4.191406 -6.921875 3.570312 -6.660156 3.09375 -6.140625 C 2.625 -5.628906 2.378906 -4.972656 2.359375 -4.171875 C 2.378906 -3.367188 2.625 -2.710938 3.09375 -2.203125 Z M 3.09375 -2.203125 "/></g></g></g></svg>