<svg xmlns="http://www.w3.org/2000/svg" xmlns:xlink="http://www.w3.org/1999/xlink" width="500" zoomAndPan="magnify" viewBox="0 0 375 374.999991" height="500" preserveAspectRatio="xMidYMid meet" version="1.0"><defs><clipPath id="8a30489306"><path d="M 109 13.75 L 267 13.75 L 267 214 L 109 214 Z M 109 13.75 " clip-rule="nonzero"/></clipPath></defs><path fill="#0367a6" d="M 302.890625 338.863281 L 263.515625 334.371094 L 281.265625 163.335938 C 281.265625 163.335938 344.339844 225.445312 348.84375 264.601562 C 352.070312 292.617188 302.890625 338.863281 302.890625 338.863281 Z M 302.890625 338.863281 " fill-opacity="1" fill-rule="nonzero"/><path fill="#0367a6" d="M 72.042969 338.863281 L 111.417969 334.371094 L 93.671875 163.335938 C 93.671875 163.335938 30.59375 225.445312 26.089844 264.601562 C 22.867188 292.617188 72.042969 338.863281 72.042969 338.863281 Z M 72.042969 338.863281 " fill-opacity="1" fill-rule="nonzero"/><g clip-path="url(#8a30489306)"><path fill="#0367a6" d="M 266.332031 111.070312 C 266.332031 136.109375 250.523438 213.746094 187.835938 213.746094 C 125.152344 213.746094 109.34375 136.109375 109.34375 111.070312 C 109.34375 86.035156 155.191406 13.902344 187.460938 13.902344 C 219.730469 13.902344 266.332031 86.035156 266.332031 111.070312 Z M 266.332031 111.070312 " fill-opacity="1" fill-rule="nonzero"/></g><path fill="#ffffff" d="M 251.363281 122.824219 C 251.304688 157.527344 231.601562 188.039062 188.457031 188.039062 C 144.824219 188.039062 124.316406 160.273438 124.316406 125.527344 C 135.066406 103.699219 242.8125 100.277344 251.363281 122.824219 Z M 251.363281 122.824219 " fill-opacity="1" fill-rule="nonzero"/><path fill="#292525" d="M 308.214844 317.980469 C 303.976562 325.742188 73.054688 325.035156 68.109375 317.980469 C 63.167969 310.925781 58.929688 169.117188 68.109375 162.765625 C 77.289062 156.417969 301.859375 159.238281 308.214844 162.765625 C 314.570312 166.292969 312.453125 310.21875 308.214844 317.980469 Z M 308.214844 317.980469 " fill-opacity="1" fill-rule="nonzero"/><path fill="#292323" d="M 308.214844 162.765625 C 301.859375 159.238281 77.289062 156.417969 68.109375 162.765625 C 67.042969 163.503906 66.160156 166.089844 65.433594 170.058594 C 99.484375 165.273438 294.867188 167.945312 300.789062 171.234375 C 306.480469 174.390625 305.375 290.113281 302.039062 319.847656 C 305.671875 319.292969 307.839844 318.671875 308.214844 317.980469 C 312.453125 310.21875 314.570312 166.292969 308.214844 162.765625 Z M 308.214844 162.765625 " fill-opacity="1" fill-rule="nonzero"/><path fill="#292323" d="M 57.351562 322.921875 C 51.476562 327.15625 59.765625 351.335938 61.1875 353.257812 C 66.417969 360.3125 310.691406 361.015625 315.171875 353.257812 C 316.378906 351.171875 324.152344 329.269531 318.167969 322.921875 C 312.183594 316.570312 63.226562 318.6875 57.351562 322.921875 Z M 57.351562 322.921875 " fill-opacity="1" fill-rule="nonzero"/><path fill="#0367a6" d="M 218.433594 240.222656 C 218.21875 240.070312 213.082031 236.53125 209.222656 235.925781 C 207.855469 235.710938 205.980469 235.976562 204.089844 236.417969 C 204.335938 235.992188 204.476562 235.507812 204.476562 234.941406 C 204.476562 234.015625 204.28125 233.058594 203.917969 232.097656 C 202.726562 228.964844 199.71875 225.820312 195.734375 223.90625 C 195.421875 223.757812 195.101562 223.617188 194.773438 223.480469 C 193.9375 221.296875 191.910156 219.914062 189.640625 219.394531 C 189.179688 219.289062 189.050781 219.746094 189.511719 220.066406 C 190.320312 220.628906 191.058594 221.484375 191.589844 222.488281 C 190.34375 222.21875 189.042969 222.0625 187.703125 222.0625 C 185.914062 222.0625 184.191406 222.332031 182.574219 222.800781 C 183.113281 221.664062 183.910156 220.683594 184.800781 220.066406 C 185.261719 219.746094 185.132812 219.292969 184.671875 219.398438 C 182.195312 219.964844 180.011719 221.558594 179.339844 224.09375 C 175.585938 225.980469 172.738281 228.957031 171.546875 231.953125 C 171.140625 232.960938 170.929688 233.976562 170.929688 234.945312 C 170.929688 235.484375 171.078125 235.953125 171.34375 236.363281 C 169.535156 235.953125 167.761719 235.722656 166.453125 235.929688 C 162.589844 236.535156 157.457031 240.074219 157.238281 240.222656 C 156.679688 240.613281 156.542969 241.378906 156.929688 241.9375 C 157.167969 242.28125 157.550781 242.46875 157.945312 242.46875 C 158.183594 242.46875 158.429688 242.394531 158.644531 242.246094 C 158.691406 242.214844 163.523438 238.886719 166.835938 238.363281 C 167.996094 238.179688 169.832031 238.496094 171.726562 238.992188 C 171.371094 240.160156 171.125 241.511719 171.011719 243.074219 C 168.789062 243.039062 166.539062 243.191406 165.078125 243.800781 C 161.355469 245.347656 158.292969 251.65625 157.957031 252.371094 C 157.667969 252.984375 157.929688 253.71875 158.546875 254.007812 C 158.714844 254.089844 158.894531 254.125 159.070312 254.125 C 159.53125 254.125 159.976562 253.867188 160.1875 253.417969 C 160.988281 251.71875 163.601562 247.082031 166.023438 246.074219 C 167.109375 245.625 168.972656 245.503906 170.9375 245.539062 C 170.949219 247.535156 171.09375 249.382812 171.359375 251.097656 C 169.265625 251.570312 167.214844 252.226562 165.972656 253.125 C 162.710938 255.488281 161.191406 262.332031 161.027344 263.101562 C 160.886719 263.769531 161.316406 264.421875 161.980469 264.5625 C 162.0625 264.578125 162.152344 264.589844 162.234375 264.589844 C 162.804688 264.589844 163.316406 264.191406 163.4375 263.613281 C 163.828125 261.769531 165.304688 256.652344 167.421875 255.117188 C 168.332031 254.460938 170.011719 253.929688 171.835938 253.515625 C 172.628906 256.714844 173.957031 259.3125 175.828125 261.273438 L 175.949219 261.707031 C 175.972656 261.699219 176.050781 261.675781 176.160156 261.636719 C 178.902344 264.304688 182.742188 265.695312 187.726562 265.695312 C 192.734375 265.695312 196.566406 264.320312 199.296875 261.683594 C 199.328125 261.691406 199.359375 261.699219 199.367188 261.707031 L 199.40625 261.570312 C 201.425781 259.570312 202.820312 256.847656 203.640625 253.46875 C 205.542969 253.886719 207.3125 254.433594 208.253906 255.117188 C 210.371094 256.648438 211.84375 261.769531 212.234375 263.613281 C 212.359375 264.1875 212.871094 264.585938 213.441406 264.585938 C 213.523438 264.585938 213.609375 264.578125 213.695312 264.5625 C 214.359375 264.421875 214.789062 263.765625 214.648438 263.101562 C 214.484375 262.332031 212.964844 255.484375 209.703125 253.125 C 208.421875 252.195312 206.273438 251.523438 204.109375 251.050781 C 204.363281 249.347656 204.503906 247.519531 204.511719 245.542969 C 206.558594 245.496094 208.527344 245.609375 209.652344 246.074219 C 212.066406 247.078125 214.683594 251.71875 215.488281 253.417969 C 215.699219 253.867188 216.140625 254.125 216.605469 254.125 C 216.78125 254.125 216.957031 254.089844 217.128906 254.007812 C 217.746094 253.714844 218.007812 252.984375 217.71875 252.371094 C 217.382812 251.65625 214.320312 245.347656 210.597656 243.800781 C 209.085938 243.175781 206.734375 243.027344 204.441406 243.078125 C 204.328125 241.539062 204.089844 240.203125 203.742188 239.046875 C 205.707031 238.523438 207.636719 238.171875 208.839844 238.363281 C 212.140625 238.882812 216.984375 242.214844 217.03125 242.246094 C 217.242188 242.394531 217.488281 242.46875 217.730469 242.46875 C 218.121094 242.46875 218.507812 242.28125 218.746094 241.9375 C 219.132812 241.375 218.992188 240.609375 218.433594 240.222656 Z M 218.433594 240.222656 " fill-opacity="1" fill-rule="nonzero"/></svg>