<svg xmlns="http://www.w3.org/2000/svg" xmlns:xlink="http://www.w3.org/1999/xlink" width="1080" zoomAndPan="magnify" viewBox="0 0 810 225" height="300" preserveAspectRatio="xMidYMid meet" version="1.0"><defs><g/></defs><path fill="#000000" d="M 165.53125 82.902344 L 644.128906 82.902344 C 648.007812 82.902344 651.726562 84.441406 654.46875 87.1875 C 657.210938 89.929688 658.753906 93.652344 658.753906 97.53125 L 658.753906 126.796875 C 658.753906 130.675781 657.210938 134.398438 654.46875 137.140625 C 651.726562 139.886719 648.007812 141.429688 644.128906 141.429688 L 165.53125 141.429688 C 161.652344 141.429688 157.929688 139.886719 155.1875 137.140625 C 152.445312 134.398438 150.90625 130.675781 150.90625 126.796875 L 150.90625 97.53125 C 150.90625 93.652344 152.445312 89.929688 155.1875 87.1875 C 157.929688 84.441406 161.652344 82.902344 165.53125 82.902344 " fill-opacity="1" fill-rule="nonzero"/><g fill="#044bd9" fill-opacity="1"><g transform="translate(164.490343, 119.886165)"><g><path d="M 9.003906 0.339844 C 13.128906 0.339844 16.378906 -1.792969 16.378906 -6.226562 C 16.378906 -9.914062 14.753906 -12.046875 11.203125 -13.164062 L 8.121094 -14.113281 C 7.175781 -14.382812 6.292969 -15.058594 6.292969 -16.3125 C 6.292969 -17.902344 7.613281 -18.578125 9.035156 -18.578125 C 10.796875 -18.578125 11.914062 -17.53125 11.914062 -15.804688 L 16.347656 -15.804688 C 16.347656 -20.304688 13.605469 -22.980469 9.035156 -22.980469 C 5.515625 -22.980469 1.792969 -20.949219 1.792969 -16.347656 C 1.792969 -13.265625 3.484375 -10.863281 6.769531 -9.847656 L 9.847656 -8.902344 C 11.066406 -8.527344 11.945312 -7.75 11.945312 -6.429688 C 11.945312 -4.976562 11 -4.0625 8.902344 -4.0625 C 7.003906 -4.0625 5.855469 -5.246094 5.855469 -7.140625 L 1.421875 -7.140625 C 1.421875 -2.46875 4.265625 0.339844 9.003906 0.339844 Z M 9.003906 0.339844 "/></g></g></g><g fill="#044bd9" fill-opacity="1"><g transform="translate(182.220306, 119.886165)"><g><path d="M 15.738281 -11.371094 C 15.636719 -16.042969 13.332031 -18.410156 8.933594 -18.410156 C 4.433594 -18.410156 2.164062 -15.90625 2.164062 -11.03125 L 2.164062 -7.039062 C 2.164062 -2.164062 4.398438 0.339844 8.933594 0.339844 C 13.199219 0.339844 15.738281 -1.996094 15.738281 -5.550781 L 11.304688 -5.550781 C 11.304688 -4.433594 10.390625 -3.65625 8.933594 -3.65625 C 7.277344 -3.65625 6.566406 -4.46875 6.566406 -6.53125 L 6.566406 -7.714844 L 15.738281 -7.714844 Z M 8.933594 -14.449219 C 10.625 -14.449219 11.304688 -13.605469 11.304688 -11.574219 L 11.304688 -11.269531 L 6.566406 -11.132812 L 6.566406 -11.574219 C 6.566406 -13.570312 7.277344 -14.449219 8.933594 -14.449219 Z M 8.933594 -14.449219 "/></g></g></g><g fill="#044bd9" fill-opacity="1"><g transform="translate(199.950268, 119.886165)"><g><path d="M 16.175781 -13.738281 L 16.175781 -17.902344 L 13.535156 -17.902344 C 11.878906 -17.902344 10.21875 -17.496094 9.375 -15.160156 L 8.902344 -17.902344 L 1.996094 -17.902344 L 1.996094 -13.941406 L 5.382812 -13.941406 L 5.382812 -3.992188 L 1.996094 -3.992188 L 1.996094 0 L 14.855469 0 L 14.855469 -3.992188 L 9.78125 -3.992188 L 9.78125 -10.796875 C 9.78125 -12.925781 10.492188 -13.738281 12.421875 -13.738281 Z M 16.175781 -13.738281 "/></g></g></g><g fill="#044bd9" fill-opacity="1"><g transform="translate(217.68023, 119.886165)"><g><path d="M 15.738281 -11.371094 C 15.636719 -16.042969 13.332031 -18.410156 8.933594 -18.410156 C 4.433594 -18.410156 2.164062 -15.90625 2.164062 -11.03125 L 2.164062 -7.039062 C 2.164062 -2.164062 4.398438 0.339844 8.933594 0.339844 C 13.199219 0.339844 15.738281 -1.996094 15.738281 -5.550781 L 11.304688 -5.550781 C 11.304688 -4.433594 10.390625 -3.65625 8.933594 -3.65625 C 7.277344 -3.65625 6.566406 -4.46875 6.566406 -6.53125 L 6.566406 -7.714844 L 15.738281 -7.714844 Z M 8.933594 -14.449219 C 10.625 -14.449219 11.304688 -13.605469 11.304688 -11.574219 L 11.304688 -11.269531 L 6.566406 -11.132812 L 6.566406 -11.574219 C 6.566406 -13.570312 7.277344 -14.449219 8.933594 -14.449219 Z M 8.933594 -14.449219 "/></g></g></g><g fill="#044bd9" fill-opacity="1"><g transform="translate(235.410193, 119.886165)"><g><path d="M 11.4375 -19.96875 L 11.4375 -24.671875 L 7.003906 -24.671875 L 7.003906 -19.96875 Z M 16.617188 0 L 16.617188 -3.992188 L 11.40625 -3.992188 L 11.40625 -17.902344 L 3.046875 -17.902344 L 3.046875 -13.941406 L 7.003906 -13.941406 L 7.003906 -3.992188 L 1.625 -3.992188 L 1.625 0 Z M 16.617188 0 "/></g></g></g><g fill="#044bd9" fill-opacity="1"><g transform="translate(253.140155, 119.886165)"><g/></g></g><g fill="#044bd9" fill-opacity="1"><g transform="translate(262.614183, 119.886165)"><g><path d="M 8.867188 0.339844 C 13.402344 0.339844 15.703125 -2.164062 15.703125 -7.039062 L 15.703125 -11.03125 C 15.703125 -15.90625 13.402344 -18.410156 8.867188 -18.410156 C 4.332031 -18.410156 2.03125 -15.90625 2.03125 -11.03125 L 2.03125 -7.039062 C 2.03125 -2.164062 4.332031 0.339844 8.867188 0.339844 Z M 8.867188 -3.65625 C 7.175781 -3.65625 6.464844 -4.46875 6.464844 -6.53125 L 6.464844 -11.539062 C 6.464844 -13.605469 7.175781 -14.417969 8.867188 -14.417969 C 10.558594 -14.417969 11.269531 -13.605469 11.269531 -11.539062 L 11.269531 -6.53125 C 11.269531 -4.46875 10.558594 -3.65625 8.867188 -3.65625 Z M 8.867188 -3.65625 "/></g></g></g><g fill="#044bd9" fill-opacity="1"><g transform="translate(280.344145, 119.886165)"><g/></g></g><g fill="#044bd9" fill-opacity="1"><g transform="translate(289.818173, 119.886165)"><g><path d="M 8.933594 0.339844 C 13.433594 0.339844 15.804688 -1.589844 15.804688 -5.246094 C 15.804688 -8.191406 14.484375 -9.847656 11.640625 -10.660156 L 8.664062 -11.539062 C 7.613281 -11.8125 6.835938 -12.285156 6.835938 -13.128906 C 6.835938 -14.042969 7.785156 -14.585938 8.902344 -14.585938 C 10.1875 -14.585938 11.066406 -13.910156 11.066406 -12.824219 L 15.5 -12.824219 C 15.5 -15.972656 13.402344 -18.410156 8.902344 -18.410156 C 4.773438 -18.410156 2.402344 -16.347656 2.402344 -12.792969 C 2.402344 -10.152344 3.925781 -8.359375 6.667969 -7.546875 L 9.847656 -6.632812 C 10.898438 -6.328125 11.371094 -5.886719 11.371094 -5.078125 C 11.371094 -4.0625 10.355469 -3.484375 9.136719 -3.484375 C 7.785156 -3.484375 6.496094 -4.195312 6.496094 -5.582031 L 2.097656 -5.582031 C 2.097656 -1.859375 4.636719 0.339844 8.933594 0.339844 Z M 8.933594 0.339844 "/></g></g></g><g fill="#044bd9" fill-opacity="1"><g transform="translate(307.548135, 119.886165)"><g><path d="M 15.738281 -11.371094 C 15.636719 -16.042969 13.332031 -18.410156 8.933594 -18.410156 C 4.433594 -18.410156 2.164062 -15.90625 2.164062 -11.03125 L 2.164062 -7.039062 C 2.164062 -2.164062 4.398438 0.339844 8.933594 0.339844 C 13.199219 0.339844 15.738281 -1.996094 15.738281 -5.550781 L 11.304688 -5.550781 C 11.304688 -4.433594 10.390625 -3.65625 8.933594 -3.65625 C 7.277344 -3.65625 6.566406 -4.46875 6.566406 -6.53125 L 6.566406 -7.714844 L 15.738281 -7.714844 Z M 8.933594 -14.449219 C 10.625 -14.449219 11.304688 -13.605469 11.304688 -11.574219 L 11.304688 -11.269531 L 6.566406 -11.132812 L 6.566406 -11.574219 C 6.566406 -13.570312 7.277344 -14.449219 8.933594 -14.449219 Z M 8.933594 -14.449219 "/></g></g></g><g fill="#044bd9" fill-opacity="1"><g transform="translate(325.278097, 119.886165)"><g><path d="M 11 -6.769531 C 11 -4.671875 10.320312 -3.859375 8.96875 -3.859375 C 7.308594 -3.859375 6.597656 -4.535156 6.597656 -6.632812 L 6.597656 -17.902344 L 2.199219 -17.902344 L 2.199219 -6.632812 C 2.199219 -1.929688 3.992188 0.339844 7.851562 0.339844 C 9.710938 0.339844 10.863281 -0.644531 11.507812 -2.367188 L 11.878906 0 L 15.433594 0 L 15.433594 -17.902344 L 11 -17.902344 Z M 11 -6.769531 "/></g></g></g><g fill="#044bd9" fill-opacity="1"><g transform="translate(342.872723, 119.886165)"><g/></g></g><g fill="#044bd9" fill-opacity="1"><g transform="translate(352.346751, 119.886165)"><g><path d="M 5.347656 0 L 5.347656 -13.0625 C 5.347656 -13.839844 5.785156 -14.113281 6.089844 -14.113281 C 6.429688 -14.113281 6.902344 -13.839844 6.902344 -13.0625 L 6.902344 0 L 10.898438 0 L 10.898438 -13.0625 C 10.898438 -13.839844 11.371094 -14.113281 11.675781 -14.113281 C 11.980469 -14.113281 12.453125 -13.839844 12.453125 -13.0625 L 12.453125 0 L 16.546875 0 L 16.546875 -13.0625 C 16.546875 -16.414062 14.824219 -18.445312 12.894531 -18.445312 C 11.675781 -18.445312 10.726562 -17.867188 10.1875 -16.648438 C 9.578125 -17.800781 8.699219 -18.445312 7.683594 -18.445312 C 6.292969 -18.445312 5.3125 -17.597656 4.875 -15.871094 L 4.570312 -17.9375 L 1.285156 -17.9375 L 1.285156 0 Z M 5.347656 0 "/></g></g></g><g fill="#044bd9" fill-opacity="1"><g transform="translate(370.076724, 119.886165)"><g><path d="M 15.738281 -11.371094 C 15.636719 -16.042969 13.332031 -18.410156 8.933594 -18.410156 C 4.433594 -18.410156 2.164062 -15.90625 2.164062 -11.03125 L 2.164062 -7.039062 C 2.164062 -2.164062 4.398438 0.339844 8.933594 0.339844 C 13.199219 0.339844 15.738281 -1.996094 15.738281 -5.550781 L 11.304688 -5.550781 C 11.304688 -4.433594 10.390625 -3.65625 8.933594 -3.65625 C 7.277344 -3.65625 6.566406 -4.46875 6.566406 -6.53125 L 6.566406 -7.714844 L 15.738281 -7.714844 Z M 8.933594 -14.449219 C 10.625 -14.449219 11.304688 -13.605469 11.304688 -11.574219 L 11.304688 -11.269531 L 6.566406 -11.132812 L 6.566406 -11.574219 C 6.566406 -13.570312 7.277344 -14.449219 8.933594 -14.449219 Z M 8.933594 -14.449219 "/></g></g></g><g fill="#044bd9" fill-opacity="1"><g transform="translate(387.806676, 119.886165)"><g><path d="M 16.414062 0 L 16.414062 -3.992188 L 11.101562 -3.992188 L 11.101562 -25.042969 L 2.742188 -25.042969 L 2.742188 -21.050781 L 6.699219 -21.050781 L 6.699219 -3.992188 L 1.386719 -3.992188 L 1.386719 0 Z M 16.414062 0 "/></g></g></g><g fill="#044bd9" fill-opacity="1"><g transform="translate(405.536628, 119.886165)"><g><path d="M 10.695312 -18.445312 C 8.902344 -18.445312 7.511719 -17.835938 6.597656 -16.648438 L 6.597656 -25.042969 L 2.164062 -25.042969 L 2.164062 0 L 6.597656 0 L 6.597656 -11.304688 C 6.597656 -13.402344 7.308594 -14.214844 8.96875 -14.214844 C 10.625 -14.214844 11.335938 -13.402344 11.335938 -11.304688 L 11.335938 0 L 15.738281 0 L 15.738281 -11.304688 C 15.738281 -15.972656 13.976562 -18.445312 10.695312 -18.445312 Z M 10.695312 -18.445312 "/></g></g></g><g fill="#044bd9" fill-opacity="1"><g transform="translate(423.26658, 119.886165)"><g><path d="M 8.867188 0.339844 C 13.402344 0.339844 15.703125 -2.164062 15.703125 -7.039062 L 15.703125 -11.03125 C 15.703125 -15.90625 13.402344 -18.410156 8.867188 -18.410156 C 4.332031 -18.410156 2.03125 -15.90625 2.03125 -11.03125 L 2.03125 -7.039062 C 2.03125 -2.164062 4.332031 0.339844 8.867188 0.339844 Z M 8.867188 -3.65625 C 7.175781 -3.65625 6.464844 -4.46875 6.464844 -6.53125 L 6.464844 -11.539062 C 6.464844 -13.605469 7.175781 -14.417969 8.867188 -14.417969 C 10.558594 -14.417969 11.269531 -13.605469 11.269531 -11.539062 L 11.269531 -6.53125 C 11.269531 -4.46875 10.558594 -3.65625 8.867188 -3.65625 Z M 8.867188 -3.65625 "/></g></g></g><g fill="#044bd9" fill-opacity="1"><g transform="translate(440.996533, 119.886165)"><g><path d="M 16.175781 -13.738281 L 16.175781 -17.902344 L 13.535156 -17.902344 C 11.878906 -17.902344 10.21875 -17.496094 9.375 -15.160156 L 8.902344 -17.902344 L 1.996094 -17.902344 L 1.996094 -13.941406 L 5.382812 -13.941406 L 5.382812 -3.992188 L 1.996094 -3.992188 L 1.996094 0 L 14.855469 0 L 14.855469 -3.992188 L 9.78125 -3.992188 L 9.78125 -10.796875 C 9.78125 -12.925781 10.492188 -13.738281 12.421875 -13.738281 Z M 16.175781 -13.738281 "/></g></g></g><g fill="#ffffff" fill-opacity="1"><g transform="translate(458.719643, 119.886165)"><g/></g></g><g fill="#ffffff" fill-opacity="1"><g transform="translate(468.193671, 119.886165)"><g><path d="M 3.621094 -22.675781 L 3.621094 0 L 8.089844 0 L 8.089844 -9.273438 L 14.042969 -9.273438 L 14.042969 -13.636719 L 8.089844 -13.636719 L 8.089844 -18.273438 L 14.992188 -18.273438 L 14.992188 -22.675781 Z M 3.621094 -22.675781 "/></g></g></g><g fill="#ffffff" fill-opacity="1"><g transform="translate(485.923633, 119.886165)"><g><path d="M 16.175781 -13.738281 L 16.175781 -17.902344 L 13.535156 -17.902344 C 11.878906 -17.902344 10.21875 -17.496094 9.375 -15.160156 L 8.902344 -17.902344 L 1.996094 -17.902344 L 1.996094 -13.941406 L 5.382812 -13.941406 L 5.382812 -3.992188 L 1.996094 -3.992188 L 1.996094 0 L 14.855469 0 L 14.855469 -3.992188 L 9.78125 -3.992188 L 9.78125 -10.796875 C 9.78125 -12.925781 10.492188 -13.738281 12.421875 -13.738281 Z M 16.175781 -13.738281 "/></g></g></g><g fill="#ffffff" fill-opacity="1"><g transform="translate(503.653595, 119.886165)"><g><path d="M 8.867188 0.339844 C 13.402344 0.339844 15.703125 -2.164062 15.703125 -7.039062 L 15.703125 -11.03125 C 15.703125 -15.90625 13.402344 -18.410156 8.867188 -18.410156 C 4.332031 -18.410156 2.03125 -15.90625 2.03125 -11.03125 L 2.03125 -7.039062 C 2.03125 -2.164062 4.332031 0.339844 8.867188 0.339844 Z M 8.867188 -3.65625 C 7.175781 -3.65625 6.464844 -4.46875 6.464844 -6.53125 L 6.464844 -11.539062 C 6.464844 -13.605469 7.175781 -14.417969 8.867188 -14.417969 C 10.558594 -14.417969 11.269531 -13.605469 11.269531 -11.539062 L 11.269531 -6.53125 C 11.269531 -4.46875 10.558594 -3.65625 8.867188 -3.65625 Z M 8.867188 -3.65625 "/></g></g></g><g fill="#ffffff" fill-opacity="1"><g transform="translate(521.383558, 119.886165)"><g><path d="M 10.695312 -18.445312 C 8.527344 -18.445312 6.9375 -17.53125 6.058594 -15.769531 L 5.683594 -17.902344 L 2.164062 -17.902344 L 2.164062 0 L 6.597656 0 L 6.597656 -11.304688 C 6.597656 -13.402344 7.308594 -14.214844 8.96875 -14.214844 C 10.625 -14.214844 11.335938 -13.402344 11.335938 -11.304688 L 11.335938 0 L 15.738281 0 L 15.738281 -11.304688 C 15.738281 -15.972656 13.976562 -18.445312 10.695312 -18.445312 Z M 10.695312 -18.445312 "/></g></g></g><g fill="#ffffff" fill-opacity="1"><g transform="translate(539.11352, 119.886165)"><g><path d="M 4.839844 -13.941406 L 4.839844 -6.328125 C 4.839844 -2.0625 7.074219 0 11.675781 0 L 15.398438 0 L 15.398438 -3.992188 L 11.574219 -3.992188 C 10.085938 -3.992188 9.273438 -4.839844 9.273438 -6.328125 L 9.273438 -13.941406 L 14.585938 -13.941406 L 14.585938 -17.902344 L 9.273438 -17.902344 L 9.273438 -22.675781 L 5.449219 -22.675781 L 4.839844 -17.902344 L 2.03125 -17.902344 L 2.03125 -13.941406 Z M 4.839844 -13.941406 "/></g></g></g><g fill="#ffffff" fill-opacity="1"><g transform="translate(556.843482, 119.886165)"><g><path d="M 13.300781 -7.75 L 13.300781 -11.8125 L 4.433594 -11.8125 L 4.433594 -7.75 Z M 13.300781 -7.75 "/></g></g></g><g fill="#ffffff" fill-opacity="1"><g transform="translate(574.573445, 119.886165)"><g><path d="M 3.316406 -22.675781 L 3.316406 0 L 14.6875 0 L 14.6875 -4.398438 L 7.75 -4.398438 L 7.75 -9.273438 L 13.773438 -9.273438 L 13.773438 -13.636719 L 7.75 -13.636719 L 7.75 -18.273438 L 14.6875 -18.273438 L 14.6875 -22.675781 Z M 3.316406 -22.675781 "/></g></g></g><g fill="#ffffff" fill-opacity="1"><g transform="translate(592.303407, 119.886165)"><g><path d="M 10.695312 -18.445312 C 8.527344 -18.445312 6.9375 -17.53125 6.058594 -15.769531 L 5.683594 -17.902344 L 2.164062 -17.902344 L 2.164062 0 L 6.597656 0 L 6.597656 -11.304688 C 6.597656 -13.402344 7.308594 -14.214844 8.96875 -14.214844 C 10.625 -14.214844 11.335938 -13.402344 11.335938 -11.304688 L 11.335938 0 L 15.738281 0 L 15.738281 -11.304688 C 15.738281 -15.972656 13.976562 -18.445312 10.695312 -18.445312 Z M 10.695312 -18.445312 "/></g></g></g><g fill="#ffffff" fill-opacity="1"><g transform="translate(610.033369, 119.886165)"><g><path d="M 11.132812 -16.886719 C 10.390625 -17.902344 9.238281 -18.410156 7.613281 -18.410156 C 3.925781 -18.410156 1.929688 -15.839844 1.929688 -11.03125 L 1.929688 -7.039062 C 1.929688 -2.234375 3.925781 0.339844 7.613281 0.339844 C 9.710938 0.339844 11 -0.507812 11.640625 -2.199219 L 12.015625 0 L 15.566406 0 L 15.566406 -25.042969 L 11.132812 -25.042969 Z M 8.765625 -3.859375 C 7.140625 -3.859375 6.363281 -4.738281 6.363281 -6.53125 L 6.363281 -11.539062 C 6.363281 -13.332031 7.140625 -14.214844 8.765625 -14.214844 C 10.355469 -14.214844 11.132812 -13.332031 11.132812 -12.285156 L 11.132812 -5.785156 C 11.132812 -4.738281 10.355469 -3.859375 8.765625 -3.859375 Z M 8.765625 -3.859375 "/></g></g></g><g fill="#ffffff" fill-opacity="1"><g transform="translate(627.763331, 119.886165)"><g><path d="M 11.539062 0 L 11.539062 -5.515625 L 6.226562 -5.515625 L 6.226562 0 Z M 11.539062 0 "/></g></g></g></svg>